<?xml version="1.0" encoding="UTF-8"?>
<svg id="Layer_2" data-name="Layer 2" xmlns="http://www.w3.org/2000/svg" xmlns:xlink="http://www.w3.org/1999/xlink" viewBox="0 0 2585.94 715.51">
  <defs>
    <style>
      .cls-1 {
        fill: url(#linear-gradient);
      }

      .cls-2 {
        fill: #914dff;
      }

      .cls-3, .cls-4 {
        fill: #2a08fd;
      }

      .cls-5 {
        letter-spacing: .04em;
      }

      .cls-6 {
        fill: url(#linear-gradient-3);
      }

      .cls-7 {
        fill: url(#linear-gradient-4);
      }

      .cls-8 {
        fill: url(#linear-gradient-2);
      }

      .cls-9 {
        fill: url(#linear-gradient-5);
      }

      .cls-10 {
        letter-spacing: .12em;
      }

      .cls-11 {
        letter-spacing: .12em;
      }

      .cls-4 {
        font-family: Quicksand-Regular, Quicksand;
        font-size: 116px;
      }

      .cls-12 {
        letter-spacing: .14em;
      }

      .cls-13 {
        letter-spacing: .14em;
      }
    </style>
    <linearGradient id="linear-gradient" x1="14.88" y1="495.33" x2="577.45" y2="495.33" gradientUnits="userSpaceOnUse">
      <stop offset="0" stop-color="#914dff"/>
      <stop offset="1" stop-color="#2a08fd"/>
    </linearGradient>
    <linearGradient id="linear-gradient-2" x1="0" y1="629.03" x2="576.56" y2="629.03" gradientUnits="userSpaceOnUse">
      <stop offset="0" stop-color="#914dff"/>
      <stop offset="1" stop-color="#2a08fd"/>
    </linearGradient>
    <linearGradient id="linear-gradient-3" x1="20.38" y1="327.74" x2="577.81" y2="327.74" gradientUnits="userSpaceOnUse">
      <stop offset=".61" stop-color="#914dff"/>
      <stop offset="1" stop-color="#2a08fd"/>
    </linearGradient>
    <linearGradient id="linear-gradient-4" x1="0" y1="327.73" x2="568.11" y2="327.73" xlink:href="#linear-gradient"/>
    <linearGradient id="linear-gradient-5" x1="721.15" y1="283.95" x2="2553.98" y2="283.95" xlink:href="#linear-gradient"/>
  </defs>
  <g id="Layer_1-2" data-name="Layer 1">
    <g>
      <rect class="cls-1" x="230.65" y="437.68" width="115.31" height="115.31" rx="4.88" ry="4.88"/>
      <path class="cls-2" d="m576.66,57.62v.18c0,6.92-4.24,13.65-12.55,16.33-34.22,10.98-68.45,19.65-102.77,26.29-57.01,10.89-114.11,15.77-171.12,14.67-1.29,0-2.49.09-3.6,0-57.1,1.11-114.2-3.78-171.21-14.67-34.22-6.64-68.45-15.31-102.67-26.29C4.35,71.46.11,64.54.11,57.62s4.24-13.74,12.64-16.42c34.22-10.89,68.45-19.65,102.67-26.2C172.43,4.03,229.44-.96,286.45.15h3.87c57.01-1.11,114.11,3.87,171.03,14.85,34.32,6.55,68.54,15.31,102.77,26.2,8.39,2.68,12.55,9.5,12.55,16.42Z"/>
      <path class="cls-8" d="m576.56,542.73v115.31c0,6.92-4.24,13.65-12.55,16.33-34.22,10.98-68.45,19.65-102.77,26.29-51.75,9.87-103.6,14.85-155.35,14.85-5.26,0-10.52-.09-15.77-.18-1.29,0-2.49.09-3.6,0-5.26.09-10.52.18-15.77.18-51.84,0-103.69-4.98-155.44-14.85-34.22-6.64-68.45-15.31-102.67-26.29C4.25,671.69,0,664.77,0,657.85v-115.31c0,6.92,4.24,13.84,12.64,16.51,30.17,9.69,60.24,17.53,90.4,23.8,4.06.83,8.21,1.66,12.27,2.49,51.75,9.87,103.6,14.85,155.44,14.85,5.26,0,10.42.09,15.59.18h3.87c5.17-.09,10.33-.18,15.59-.18h.09c51.75,0,103.6-4.98,155.35-14.85,15.59-3.04,31.09-6.46,46.59-10.33,18.73-4.61,37.45-9.96,56.18-15.96,8.3-2.68,12.55-9.41,12.55-16.33Z"/>
      <path class="cls-6" d="m576.55,120.76v379.16c0,6.91-4.24,13.65-12.55,16.33-31.64,10.15-63.28,18.33-94.99,24.75-4.02.81-7.77-2.24-7.77-6.33V147.39c0-3.09,2.19-5.73,5.21-6.33,33.86-6.72,67.41-15.41,99.86-25.82.46-.15.91-.3,1.35-.46,4.29-1.62,8.89,1.4,8.89,5.98Z"/>
      <path class="cls-7" d="m413.56,164.98v144.82c0,1.72-.68,3.36-1.89,4.57l-63.75,63.74c-1.21,1.21-2.85,1.89-4.57,1.89h-109.95c-1.72,0-3.36-.68-4.57-1.89l-102.48-102.48c-4.07-4.07-11.03-1.19-11.03,4.57v254.48c0,4.1-3.76,7.15-7.76,6.33-31.64-6.42-63.27-14.59-94.9-24.74-8.4-2.68-12.64-9.59-12.64-16.51V120.76c0-4.59,4.6-7.6,8.9-5.98.44.16.89.32,1.35.46h.18c33.58,10.8,68.45,19.74,103.51,26.57l1.38.28,45.78,6.97c1.36.2,2.62.85,3.59,1.82l119.12,119.11c2.52,2.53,6.61,2.53,9.13,0l109.59-109.58c4.07-4.07,11.03-1.19,11.03,4.57Z"/>
      <path class="cls-3" d="m290.32,39.85h-3.87c-57.01-1.11-114.02,3.87-171.03,14.85-30.61,5.86-61.22,13.49-91.84,22.83,30.61,9.39,61.23,16.96,91.84,22.9,57.01,10.89,114.11,15.77,171.21,14.67,1.11.09,2.31,0,3.6,0,57.01,1.11,114.11-3.78,171.12-14.67,30.7-5.94,61.32-13.51,91.93-22.9-30.61-9.34-61.23-16.97-91.93-22.83-56.92-10.98-114.02-15.96-171.03-14.85Z"/>
      <g>
        <path id="Path_248515" data-name="Path 248515" class="cls-9" d="m1009.25,94.62v298.93h-38.47v-187.53l-106.59,151.07h-.8l-104.58-145.86v182.32h-37.67V94.62h.4l142.65,201.96,144.66-201.96h.4Zm147.06,270.88c13.89,0,27.38-4.81,40.47-14.43l17.23,27.65c-8.87,5.9-18.51,10.55-28.65,13.82-9.63,3.23-19.7,4.92-29.85,5.01-18.43,0-34.53-3.81-48.29-11.42-13.39-7.25-24.44-18.16-31.86-31.46-7.61-13.86-11.47-29.47-11.22-45.28-.15-15.74,4.08-31.21,12.22-44.68,8.12-13.46,19.66-24.52,33.46-32.06,14.21-7.89,30.23-11.97,46.48-11.82,21.64,0,39.74,6.34,54.3,19.03,14.56,12.69,24.51,30.39,29.85,53.09l-131.43,46.08c4.63,8.1,11.34,14.81,19.43,19.43,8.5,4.76,18.11,7.19,27.85,7.01Zm-2.8-115c-14.29-.4-28.05,5.45-37.67,16.03-9.88,10.69-14.83,24.31-14.83,40.87-.04,3.08.09,6.15.4,9.22l96.57-35.66c-3.7-8.68-9.56-16.27-17.03-22.04-7.35-5.61-16.5-8.41-27.45-8.41Zm182.32-155.87v133.44h45.28v29.65h-45.28v135.84h-37.67v-135.84h-30.45v-29.65h30.45v-93.36l37.67-40.07Zm256.05,133.03v165.89h-37.27v-27.25c-7.06,8.75-15.78,16.04-25.65,21.44-11.57,6.64-24.73,10.03-38.07,9.82-14.86.22-29.53-3.29-42.68-10.22-12.7-6.82-23.14-17.2-30.05-29.85-7.35-13.09-11.02-28.72-11.02-46.88,0-18.17,3.81-33.99,11.42-47.48,7.2-13.07,17.88-23.89,30.85-31.26,13.14-7.39,28-11.2,43.08-11.02,12.9-.32,25.64,2.86,36.87,9.22,10.19,5.92,18.83,14.16,25.24,24.04l2.8-26.45h34.46Zm-90.96,139.05c12.65.32,25.03-3.71,35.06-11.42,9.81-7.71,16.44-18.77,18.63-31.05v-32.86c-3.1-11.61-10.2-21.75-20.04-28.65-10.13-7.34-22.36-11.2-34.86-11.02-9.63-.07-19.1,2.42-27.45,7.21-8.4,4.79-15.33,11.79-20.04,20.24-5.02,8.99-7.58,19.15-7.41,29.45-.11,10.25,2.52,20.35,7.61,29.25,4.91,8.64,11.94,15.88,20.44,21.04,8.43,5.18,18.15,7.88,28.05,7.81Zm214.78-75.73v32.86h-74.53v-32.86h74.53Zm101.38-187.13v289.71h-38.87V103.84h38.87Zm172.3,117.41c15.49,0,28.32,4.61,38.47,13.82,10.15,9.22,15.36,21.17,15.63,35.86v122.62h-37.67v-109.79c-.53-9.35-3.34-16.7-8.41-22.04-5.08-5.34-12.69-8.15-22.84-8.41-14.26-.21-27.78,6.33-36.46,17.63-9.62,11.75-14.43,26.71-14.43,44.88v77.74h-37.27v-165.89h33.66l2.4,32.06c5.75-11.88,14.97-21.73,26.45-28.25,12.33-6.96,26.31-10.49,40.47-10.22Zm160.68,175.91c-11.98.06-23.87-2.12-35.06-6.41-10.48-3.85-19.8-10.34-27.05-18.83l16.03-21.64c6.16,6.05,13.27,11.06,21.04,14.83,6.8,3.34,14.26,5.12,21.84,5.21,7.56.32,15.05-1.49,21.64-5.21,5.56-3.37,8.8-9.54,8.41-16.03.21-5.06-1.67-9.99-5.21-13.62-3.33-3.38-7.37-5.98-11.82-7.61-4.41-1.6-11.82-4.01-22.24-7.21-28.32-9.08-42.47-25.24-42.47-48.49-.15-13.54,5.45-26.5,15.43-35.66,10.28-9.88,24.64-14.83,43.08-14.83,10.58-.17,21.13,1.32,31.26,4.41,9.23,3.02,17.8,7.78,25.24,14.02l-14.83,22.84c-4.56-4.74-10.1-8.43-16.23-10.82-5.91-2.52-12.22-4.02-18.63-4.41-6.81-.19-13.52,1.7-19.23,5.41-5.07,3.11-8.12,8.68-8.01,14.63-.13,4.76,1.76,9.34,5.21,12.62,3.1,3.09,6.77,5.54,10.82,7.21,3.74,1.47,11.09,3.94,22.04,7.41,13.62,4.54,24.24,10.42,31.86,17.63,7.61,7.21,11.42,16.96,11.42,29.25.42,15.04-5.72,29.52-16.83,39.67-11.22,10.42-27.11,15.63-47.68,15.63Zm269.68-169.5l-106.99,245.63h-36.87l38.07-85.35-76.94-160.28h42.07l53.69,118.21,52.49-118.21h34.46Zm88.96-133.03v133.44h45.28v29.65h-45.28v135.84h-37.67v-135.84h-30.45v-29.65h30.45v-93.36l37.67-40.07Z"/>
        <text class="cls-4" transform="translate(721.15 595.83)"><tspan class="cls-13" x="0" y="0">Niche </tspan><tspan class="cls-5" x="428.38" y="0">T</tspan><tspan class="cls-12" x="503.09" y="0">a</tspan><tspan class="cls-10" x="589.16" y="0">r</tspan><tspan class="cls-11" x="648.32" y="0">g</tspan><tspan class="cls-13" x="734.16" y="0">eting Made Easy</tspan></text>
      </g>
    </g>
  </g>
</svg>